# xmcd
#
# Track frame offsets: 
#        150
#        12646
#        24988
#        36748
#        47240
#        59343
#        73021
#        85080
#        97532
#        110434
#        121948
#        135202
#        149083
#        159491
#        172926
#        185869
#        197859
#        210514
#        221816
#        231988
#        244513
#        257771
#
# Disc length: 3590 seconds
#
# Revision: 0
# Processed by: cddbd v1.5.2PL0 Copyright (c) Steve Scherf et al.
# Submitted via: ExactAudioCopy v1.3
#
DISCID=400e0416
DTITLE=Cowboy Copas and Hawkshaw Hawkins - Hawkshaw Hawkins and Cowboy Cop
DTITLE=as_22 Oiginal Billboard Hits
DYEAR=2013
DGENRE=Country
TTITLE0=Cowboy Copas - Filipino Baby
TTITLE1=Hawkshaw Hawkins - Lonesome 7-7203
TTITLE2=Cowboy Copas - Signed Sealed And Delivered '48
TTITLE3=Cowboy Copas - Alabam
TTITLE4=Hawkshaw Hawkins - Dog House Boogie
TTITLE5=Cowboy Copas - Tennessee Waltz
TTITLE6=Cowboy Copas - Candy Kisses
TTITLE7=Hawkshaw Hawkins - I Love You A Thousand Ways
TTITLE8=Cowboy Copas - The Strange Little Girl
TTITLE9=Cowboy Copas - Tennessee Moon
TTITLE10=Hawkshaw Hawkins - Pan American
TTITLE11=Cowboy Copas - 'Tis Sweet To Be Remembered
TTITLE12=Cowboy Copas - Flat Top
TTITLE13=Hawkshaw Hawkins - Slow Poke
TTITLE14=Cowboy Copas - Breeze
TTITLE15=Cowboy Copas - I'm Waltzing With Tears In My Eyes
TTITLE16=Hawkshaw Hawkins - I'm Waiting Just For You
TTITLE17=Cowboy Copas - Sunny Tennessee
TTITLE18=Cowboy Copas - Goodbye Kisses
TTITLE19=Hawkshaw Hawkins - I Wasted A Nickel
TTITLE20=Cowboy Copas - Signed Sealed And Delivered '61
TTITLE21=Cowboy Copas - Hangman's Boogie
EXTD=
EXTT0=
EXTT1=
EXTT2=
EXTT3=
EXTT4=
EXTT5=
EXTT6=
EXTT7=
EXTT8=
EXTT9=
EXTT10=
EXTT11=
EXTT12=
EXTT13=
EXTT14=
EXTT15=
EXTT16=
EXTT17=
EXTT18=
EXTT19=
EXTT20=
EXTT21=
PLAYORDER=
